<svg width="140" height="20" viewBox="0 0 140 20" fill="none" xmlns="http://www.w3.org/2000/svg">
<path d="M-0.000209773 19.5196V0.263276H6.50632C8.01699 0.263276 9.25186 0.535949 10.2109 1.08129C11.1762 1.62037 11.8908 2.35063 12.3547 3.27208C12.8185 4.19352 13.0505 5.22153 13.0505 6.3561C13.0505 7.49067 12.8185 8.52181 12.3547 9.44952C11.8971 10.3772 11.1888 11.1169 10.2297 11.6685C9.27066 12.2139 8.04207 12.4865 6.54393 12.4865H1.88029V10.418H6.46871C7.50299 10.418 8.33354 10.2393 8.96038 9.88204C9.58721 9.52474 10.0417 9.04208 10.3237 8.43405C10.6121 7.81976 10.7563 7.12711 10.7563 6.3561C10.7563 5.58509 10.6121 4.89558 10.3237 4.28755C10.0417 3.67952 9.58408 3.20313 8.95098 2.85837C8.31787 2.50734 7.47792 2.33183 6.4311 2.33183H2.33161V19.5196H-0.000209773ZM16.8068 19.5196V0.263276H23.3133C24.8177 0.263276 26.0526 0.520278 27.0179 1.03428C27.9832 1.54202 28.6978 2.24094 29.1617 3.13104C29.6255 4.02114 29.8574 5.03348 29.8574 6.16805C29.8574 7.30262 29.6255 8.30869 29.1617 9.18625C28.6978 10.0638 27.9863 10.7533 27.0273 11.2548C26.0682 11.75 24.8428 11.9976 23.3509 11.9976H18.0855V9.89144H23.2757C24.3037 9.89144 25.1311 9.741 25.758 9.44012C26.3911 9.13924 26.8486 8.71299 27.1307 8.16138C27.4191 7.6035 27.5632 6.93905 27.5632 6.16805C27.5632 5.39704 27.4191 4.7232 27.1307 4.14651C26.8424 3.56982 26.3817 3.12477 25.7486 2.81136C25.1154 2.49167 24.2786 2.33183 23.2381 2.33183H19.1386V19.5196H16.8068ZM25.8708 10.8693L30.6096 19.5196H27.9017L23.2381 10.8693H25.8708ZM49.9906 9.89144C49.9906 11.9224 49.6239 13.6775 48.8905 15.1568C48.1571 16.6362 47.151 17.777 45.8723 18.5794C44.5935 19.3817 43.133 19.7829 41.4907 19.7829C39.8484 19.7829 38.3879 19.3817 37.1091 18.5794C35.8304 17.777 34.8243 16.6362 34.0909 15.1568C33.3575 13.6775 32.9908 11.9224 32.9908 9.89144C32.9908 7.8605 33.3575 6.10537 34.0909 4.62604C34.8243 3.14671 35.8304 2.00587 37.1091 1.20353C38.3879 0.401179 39.8484 5.66576e-06 41.4907 5.66576e-06C43.133 5.66576e-06 44.5935 0.401179 45.8723 1.20353C47.151 2.00587 48.1571 3.14671 48.8905 4.62604C49.6239 6.10537 49.9906 7.8605 49.9906 9.89144ZM47.734 9.89144C47.734 8.22406 47.455 6.81682 46.8971 5.66972C46.3455 4.52261 45.5965 3.65445 44.6499 3.06522C43.7097 2.476 42.6566 2.18139 41.4907 2.18139C40.3248 2.18139 39.2686 2.476 38.3221 3.06522C37.3818 3.65445 36.6327 4.52261 36.0749 5.66972C35.5232 6.81682 35.2474 8.22406 35.2474 9.89144C35.2474 11.5588 35.5232 12.9661 36.0749 14.1132C36.6327 15.2603 37.3818 16.1284 38.3221 16.7177C39.2686 17.3069 40.3248 17.6015 41.4907 17.6015C42.6566 17.6015 43.7097 17.3069 44.6499 16.7177C45.5965 16.1284 46.3455 15.2603 46.8971 14.1132C47.455 12.9661 47.734 11.5588 47.734 9.89144ZM71.889 5.07736C71.7762 4.12457 71.3186 3.38491 70.5162 2.85837C69.7139 2.33183 68.7298 2.06856 67.5638 2.06856C66.7113 2.06856 65.9654 2.20646 65.326 2.48227C64.6929 2.75807 64.1977 3.13731 63.8405 3.61997C63.4894 4.10263 63.3139 4.65111 63.3139 5.26541C63.3139 5.77941 63.4361 6.22133 63.6806 6.59116C63.9313 6.95473 64.251 7.25874 64.6397 7.50321C65.0283 7.7414 65.4357 7.93885 65.862 8.09556C66.2882 8.246 66.68 8.36824 67.0373 8.46226L68.993 8.9888C69.4945 9.12044 70.0524 9.30222 70.6667 9.53415C71.2872 9.76607 71.8796 10.0826 72.4437 10.4838C73.0142 10.8787 73.4843 11.3864 73.8541 12.007C74.224 12.6276 74.4089 13.3892 74.4089 14.2918C74.4089 15.3324 74.1362 16.2726 73.5908 17.1126C73.0518 17.9525 72.262 18.6201 71.2214 19.1153C70.1871 19.6105 68.9303 19.8581 67.451 19.8581C66.072 19.8581 64.8779 19.6356 63.8687 19.1905C62.8657 18.7455 62.0759 18.1249 61.4992 17.3288C60.9288 16.5327 60.606 15.6082 60.5308 14.5551H62.9378C63.0005 15.2822 63.245 15.884 63.6712 16.3604C64.1037 16.8305 64.6491 17.1815 65.3072 17.4134C65.9717 17.6391 66.6863 17.7519 67.451 17.7519C68.3411 17.7519 69.1403 17.6078 69.8487 17.3194C70.557 17.0248 71.118 16.6174 71.5317 16.0971C71.9454 15.5706 72.1523 14.9563 72.1523 14.2542C72.1523 13.6148 71.9736 13.0946 71.6163 12.6934C71.259 12.2922 70.7889 11.9663 70.2059 11.7155C69.623 11.4648 68.993 11.2454 68.316 11.0574L65.9466 10.3804C64.4422 9.94786 63.2512 9.33043 62.3737 8.52808C61.4961 7.72573 61.0573 6.67578 61.0573 5.37824C61.0573 4.30008 61.3488 3.35983 61.9317 2.55749C62.521 1.74887 63.3108 1.12204 64.3012 0.676986C65.2978 0.225666 66.4105 5.66576e-06 67.6391 5.66576e-06C68.8802 5.66576e-06 69.9834 0.222532 70.9487 0.667583C71.9141 1.10637 72.6788 1.70813 73.243 2.47286C73.8134 3.2376 74.1143 4.10577 74.1456 5.07736H71.889ZM79.0325 19.5196H76.5879L83.6586 0.263276H86.0656L93.1363 19.5196H90.6916L84.9373 3.30969H84.7869L79.0325 19.5196ZM79.9352 11.9976H89.789V14.0662H79.9352V11.9976ZM96.1357 19.5196V0.263276H98.4675V17.4511H107.419V19.5196H96.1357ZM111.029 19.5196V0.263276H122.651V2.33183H113.361V8.83836H122.049V10.9069H113.361V17.4511H122.801V19.5196H111.029ZM137.384 5.07736C137.272 4.12457 136.814 3.38491 136.012 2.85837C135.209 2.33183 134.225 2.06856 133.059 2.06856C132.207 2.06856 131.461 2.20646 130.822 2.48227C130.188 2.75807 129.693 3.13731 129.336 3.61997C128.985 4.10263 128.809 4.65111 128.809 5.26541C128.809 5.77941 128.932 6.22133 129.176 6.59116C129.427 6.95473 129.747 7.25874 130.135 7.50321C130.524 7.7414 130.931 7.93885 131.357 8.09556C131.784 8.246 132.176 8.36824 132.533 8.46226L134.489 8.9888C134.99 9.12044 135.548 9.30222 136.162 9.53415C136.783 9.76607 137.375 10.0826 137.939 10.4838C138.51 10.8787 138.98 11.3864 139.35 12.007C139.719 12.6276 139.904 13.3892 139.904 14.2918C139.904 15.3324 139.632 16.2726 139.086 17.1126C138.547 17.9525 137.757 18.6201 136.717 19.1153C135.683 19.6105 134.426 19.8581 132.947 19.8581C131.567 19.8581 130.373 19.6356 129.364 19.1905C128.361 18.7455 127.571 18.1249 126.995 17.3288C126.424 16.5327 126.101 15.6082 126.026 14.5551H128.433C128.496 15.2822 128.74 15.884 129.167 16.3604C129.599 16.8305 130.145 17.1815 130.803 17.4134C131.467 17.6391 132.182 17.7519 132.947 17.7519C133.837 17.7519 134.636 17.6078 135.344 17.3194C136.052 17.0248 136.613 16.6174 137.027 16.0971C137.441 15.5706 137.648 14.9563 137.648 14.2542C137.648 13.6148 137.469 13.0946 137.112 12.6934C136.755 12.2922 136.284 11.9663 135.701 11.7155C135.118 11.4648 134.489 11.2454 133.812 11.0574L131.442 10.3804C129.938 9.94786 128.747 9.33043 127.869 8.52808C126.992 7.72573 126.553 6.67578 126.553 5.37824C126.553 4.30008 126.844 3.35983 127.427 2.55749C128.016 1.74887 128.806 1.12204 129.797 0.676986C130.793 0.225666 131.906 5.66576e-06 133.135 5.66576e-06C134.376 5.66576e-06 135.479 0.222532 136.444 0.667583C137.41 1.10637 138.174 1.70813 138.738 2.47286C139.309 3.2376 139.61 4.10577 139.641 5.07736H137.384Z" fill="white"/>
</svg>
