<svg width="251" height="71" viewBox="0 0 251 71" fill="none" xmlns="http://www.w3.org/2000/svg">
<path fill-rule="evenodd" clip-rule="evenodd" d="M54.2778 13.1305V47.7327H52.9661V20.0745H50.3419V30.5397H45.7505V40.2571H41.8145V58.1979H77.8933V57.4509H78.5494V32.7823H75.9252V22.3171H73.301V18.5789H67.3973V30.5397H66.0854V13.1305H54.2778Z" fill="white"/>
<path d="M38.7191 12.6737V58H28.4164V27.3999L24.3009 58H16.9939L12.6544 28.0998V58H2.3517V12.6737H17.6098C18.0577 15.3987 18.5337 18.609 19.0376 22.3045L20.6614 33.8391L23.349 12.6737H38.7191ZM79.9019 12.6737V58H69.5712L63.44 37.3946V58H53.5852V12.6737H63.44L70.0471 33.0831V12.6737H79.9019ZM111.762 12.6737V58H99.9754V38.9624H96.4478V58H84.6613V12.6737H96.4478V28.8837H99.9754V12.6737H111.762ZM136.875 12.6737L143.622 58H131.555L130.967 49.853H126.74L126.04 58H113.834L119.825 12.6737H136.875ZM130.631 41.818C130.034 36.6854 129.437 30.3488 128.84 22.8084C127.645 31.4687 126.899 37.8052 126.6 41.818H130.631ZM166.187 12.6737V21.7446H159.188V58H147.401V21.7446H140.43V12.6737H166.187ZM192.616 12.6737V21.7446H185.617V58H173.83V21.7446H166.859V12.6737H192.616ZM213.361 12.6737L220.108 58H208.042L207.454 49.853H203.226L202.526 58H190.32L196.311 12.6737H213.361ZM207.118 41.818C206.521 36.6854 205.923 30.3488 205.326 22.8084C204.132 31.4687 203.385 37.8052 203.086 41.818H207.118ZM248.441 12.6737V58H238.11L231.979 37.3946V58H222.124V12.6737H231.979L238.586 33.0831V12.6737H248.441Z" fill="white"/>
</svg>
