<svg width="336" height="31" viewBox="0 0 336 31" fill="none" xmlns="http://www.w3.org/2000/svg">
<path d="M1.32624 24V6.31674H5.38536C6.08867 6.31674 6.67141 6.42391 7.13359 6.63826C7.60246 6.8526 7.97086 7.17076 8.23879 7.59275C8.50672 8.01474 8.69762 8.5372 8.81149 9.16013C8.92536 9.77636 8.98229 10.4897 8.98229 11.3002V11.672C8.98229 12.8107 8.88182 13.7819 8.68087 14.5857C8.48662 15.3828 8.13497 15.9889 7.6259 16.4042C7.11684 16.8195 6.40013 17.0272 5.47578 17.0272H4.01892V24H1.32624ZM4.01892 14.8067H4.94327C5.33847 14.8067 5.63319 14.7062 5.82744 14.5053C6.02169 14.3044 6.14895 13.9728 6.20923 13.5106C6.27622 13.0417 6.30971 12.4188 6.30971 11.6418V11.3002C6.30301 10.3424 6.21928 9.61896 6.05853 9.12999C5.89777 8.63432 5.53272 8.38649 4.96337 8.38649H4.01892V14.8067ZM10.8109 24V6.31674H15.2619C16.1862 6.31674 16.8761 6.49759 17.3316 6.8593C17.7871 7.221 18.0851 7.75016 18.2258 8.44677C18.3732 9.14338 18.4469 9.99406 18.4469 10.9988C18.4469 12.037 18.3397 12.8542 18.1253 13.4503C17.9177 14.0398 17.489 14.435 16.8393 14.6359C17.1474 14.6895 17.4053 14.8168 17.6129 15.0177C17.8206 15.212 17.988 15.5 18.1153 15.8818C18.2426 16.2569 18.333 16.7425 18.3866 17.3386C18.4469 17.9281 18.477 18.6515 18.477 19.5089C18.477 19.5758 18.477 19.7634 18.477 20.0715C18.477 20.3796 18.477 20.7447 18.477 21.1667C18.4837 21.5819 18.4904 21.9972 18.4971 22.4125C18.5038 22.8278 18.5138 23.1828 18.5272 23.4775C18.5406 23.7723 18.5574 23.9464 18.5775 24H15.8848C15.8647 23.9665 15.8479 23.7957 15.8346 23.4876C15.8279 23.1728 15.8178 22.7742 15.8044 22.292C15.7977 21.8097 15.791 21.2906 15.7843 20.7346C15.7843 20.1787 15.7843 19.6328 15.7843 19.0969C15.7843 18.5544 15.7843 18.0754 15.7843 17.6602C15.7843 17.131 15.7441 16.7324 15.6637 16.4645C15.5901 16.1899 15.4494 15.999 15.2418 15.8918C15.0408 15.7847 14.7494 15.721 14.3676 15.7009L13.5036 15.6507V24H10.8109ZM13.5136 13.5608H14.5887C14.9169 13.5608 15.1647 13.4872 15.3322 13.3398C15.5063 13.1924 15.6236 12.9212 15.6838 12.526C15.7508 12.1308 15.7843 11.5614 15.7843 10.8179V10.7074C15.7843 10.0845 15.7542 9.60556 15.6939 9.27065C15.6336 8.93574 15.5063 8.70465 15.3121 8.57739C15.1245 8.45012 14.8298 8.38649 14.4279 8.38649H13.5136V13.5608ZM24.4953 24.2009C23.5777 24.2009 22.8275 24.0067 22.2447 23.6182C21.6687 23.2297 21.2434 22.6537 20.9687 21.8901C20.6941 21.1265 20.5568 20.182 20.5568 19.0567V10.9686C20.5568 9.95052 20.6908 9.07975 20.9587 8.35635C21.2266 7.63294 21.6519 7.07699 22.2347 6.68849C22.8174 6.3 23.581 6.10575 24.5255 6.10575C25.2355 6.10575 25.835 6.21627 26.3239 6.43731C26.8129 6.65835 27.2081 6.97986 27.5095 7.40185C27.8109 7.81714 28.0286 8.3262 28.1626 8.92904C28.3033 9.52518 28.3736 10.205 28.3736 10.9686V19.0567C28.3736 20.182 28.2396 21.1265 27.9717 21.8901C27.7105 22.6537 27.2952 23.2297 26.7258 23.6182C26.1565 24.0067 25.413 24.2009 24.4953 24.2009ZM24.4953 21.87C24.8302 21.87 25.0814 21.7695 25.2489 21.5686C25.4163 21.3676 25.5269 21.0628 25.5804 20.6542C25.6407 20.239 25.6709 19.7165 25.6709 19.0869V10.8481C25.6709 10.0778 25.5972 9.48499 25.4498 9.0697C25.3092 8.64772 25.001 8.43672 24.5255 8.43672C24.0365 8.43672 23.7049 8.64102 23.5308 9.04961C23.3566 9.4515 23.2696 10.0476 23.2696 10.838V19.0869C23.2696 19.7299 23.2964 20.2591 23.3499 20.6743C23.4102 21.0829 23.5274 21.3844 23.7016 21.5786C23.8824 21.7728 24.147 21.87 24.4953 21.87ZM34.0503 24.2009C33.3135 24.2009 32.6973 24.0871 32.2016 23.8593C31.7126 23.6249 31.3241 23.2866 31.0361 22.8446C30.7548 22.3958 30.5539 21.8532 30.4333 21.2169C30.3127 20.5739 30.2524 19.8438 30.2524 19.0266V17.4492H32.8045V19.2275C32.8045 20.1787 32.8848 20.8619 33.0456 21.2772C33.2063 21.6925 33.5245 21.9001 34.0001 21.9001C34.3216 21.9001 34.5627 21.8264 34.7235 21.6791C34.8909 21.525 35.0015 21.2839 35.055 20.9557C35.1153 20.6208 35.1455 20.1854 35.1455 19.6495C35.1455 18.9864 35.0048 18.3802 34.7235 17.831C34.4489 17.2817 34.0302 16.7124 33.4676 16.1229L32.1614 14.7766C31.7997 14.4015 31.4715 14.0029 31.1768 13.5809C30.8888 13.159 30.6577 12.6901 30.4835 12.1743C30.3161 11.6519 30.2323 11.0691 30.2323 10.4261C30.2323 9.49504 30.3462 8.708 30.5739 8.06497C30.8017 7.42195 31.1868 6.93633 31.7294 6.60811C32.2719 6.2732 33.0154 6.10575 33.9599 6.10575C34.6699 6.10575 35.2526 6.21627 35.7081 6.43731C36.1703 6.65165 36.5287 6.96982 36.7832 7.3918C37.0444 7.80709 37.2286 8.31616 37.3358 8.91899C37.443 9.51513 37.4965 10.1984 37.4965 10.9686V12.0638H35.0149V10.7978C35.0149 10.262 34.9847 9.81655 34.9244 9.46155C34.8708 9.10654 34.767 8.84197 34.613 8.66781C34.4589 8.48696 34.2345 8.39653 33.9398 8.39653C33.6585 8.39653 33.4307 8.46017 33.2566 8.58743C33.0824 8.708 32.9552 8.8989 32.8748 9.16013C32.8011 9.41466 32.7643 9.74622 32.7643 10.1548C32.7643 10.5232 32.8111 10.8414 32.9049 11.1093C32.9987 11.3772 33.1427 11.6351 33.337 11.8829C33.5312 12.1308 33.7723 12.4088 34.0604 12.7169L35.5172 14.2943C36.2138 15.0445 36.7564 15.8248 37.1449 16.6353C37.5334 17.4458 37.7276 18.3501 37.7276 19.3481C37.7276 20.4064 37.6138 21.2973 37.386 22.0207C37.1583 22.7374 36.7765 23.2799 36.2406 23.6483C35.7048 24.0167 34.9747 24.2009 34.0503 24.2009ZM39.6266 24V6.31674H43.6857C44.389 6.31674 44.9717 6.42391 45.4339 6.63826C45.9028 6.8526 46.2712 7.17076 46.5391 7.59275C46.807 8.01474 46.9979 8.5372 47.1118 9.16013C47.2257 9.77636 47.2826 10.4897 47.2826 11.3002V11.672C47.2826 12.8107 47.1821 13.7819 46.9812 14.5857C46.787 15.3828 46.4353 15.9889 45.9262 16.4042C45.4172 16.8195 44.7005 17.0272 43.7761 17.0272H42.3192V24H39.6266ZM42.3192 14.8067H43.2436C43.6388 14.8067 43.9335 14.7062 44.1278 14.5053C44.322 14.3044 44.4493 13.9728 44.5096 13.5106C44.5765 13.0417 44.61 12.4188 44.61 11.6418V11.3002C44.6033 10.3424 44.5196 9.61896 44.3589 9.12999C44.1981 8.63432 43.833 8.38649 43.2637 8.38649H42.3192V14.8067ZM49.1112 24V6.31674H55.0391V8.63767H51.8039V13.7819H54.8784V16.0526H51.8039V21.6791H55.1597V24H49.1112ZM60.7762 24.2009C59.9188 24.2009 59.2054 24.0033 58.6361 23.6082C58.0667 23.213 57.638 22.6369 57.35 21.88C57.0687 21.1164 56.928 20.1954 56.928 19.117V11.4107C56.928 10.6002 56.995 9.87014 57.129 9.22041C57.2629 8.57069 57.4806 8.01474 57.7821 7.55256C58.0835 7.09039 58.4854 6.73538 58.9877 6.48755C59.4901 6.23971 60.1097 6.1158 60.8465 6.1158C61.5163 6.1158 62.0857 6.22632 62.5545 6.44736C63.0301 6.6617 63.4152 6.97317 63.71 7.38176C64.0114 7.79035 64.2291 8.28601 64.363 8.86876C64.5037 9.4448 64.574 10.0945 64.574 10.8179V13.2494H61.9718V10.9887C61.9718 10.118 61.8981 9.47829 61.7507 9.0697C61.6034 8.65442 61.3087 8.44677 60.8666 8.44677C60.3776 8.44677 60.0494 8.67116 59.8819 9.11994C59.7212 9.56202 59.6408 10.1816 59.6408 10.9787V19.2376C59.6408 19.8538 59.6743 20.3595 59.7413 20.7547C59.815 21.1432 59.9355 21.4312 60.103 21.6188C60.2704 21.7996 60.5049 21.8901 60.8063 21.8901C61.2618 21.8901 61.5699 21.6757 61.7306 21.247C61.8914 20.8184 61.9718 20.1385 61.9718 19.2074V16.6755H64.6142V19.1773C64.6142 20.2959 64.4836 21.2303 64.2224 21.9805C63.9611 22.724 63.5459 23.2799 62.9765 23.6483C62.4139 24.0167 61.6804 24.2009 60.7762 24.2009ZM70.522 24.2009C69.6647 24.2009 68.9513 24.0033 68.382 23.6082C67.8126 23.213 67.3839 22.6369 67.0959 21.88C66.8146 21.1164 66.6739 20.1954 66.6739 19.117V11.4107C66.6739 10.6002 66.7409 9.87014 66.8749 9.22041C67.0088 8.57069 67.2265 8.01474 67.5279 7.55256C67.8294 7.09039 68.2312 6.73538 68.7336 6.48755C69.236 6.23971 69.8556 6.1158 70.5924 6.1158C71.2622 6.1158 71.8315 6.22632 72.3004 6.44736C72.776 6.6617 73.1611 6.97317 73.4558 7.38176C73.7573 7.79035 73.975 8.28601 74.1089 8.86876C74.2496 9.4448 74.3199 10.0945 74.3199 10.8179V13.2494H71.7177V10.9887C71.7177 10.118 71.644 9.47829 71.4966 9.0697C71.3493 8.65442 71.0545 8.44677 70.6125 8.44677C70.1235 8.44677 69.7953 8.67116 69.6278 9.11994C69.4671 9.56202 69.3867 10.1816 69.3867 10.9787V19.2376C69.3867 19.8538 69.4202 20.3595 69.4872 20.7547C69.5608 21.1432 69.6814 21.4312 69.8489 21.6188C70.0163 21.7996 70.2508 21.8901 70.5522 21.8901C71.0077 21.8901 71.3158 21.6757 71.4765 21.247C71.6373 20.8184 71.7177 20.1385 71.7177 19.2074V16.6755H74.3601V19.1773C74.3601 20.2959 74.2295 21.2303 73.9683 21.9805C73.707 22.724 73.2917 23.2799 72.7224 23.6483C72.1597 24.0167 71.4263 24.2009 70.522 24.2009ZM70.4115 30.4102C69.8891 30.4102 69.39 30.3231 68.9145 30.149V29.0337C69.5508 29.0337 70.0331 28.9667 70.3613 28.8328C70.6962 28.6988 70.9239 28.5213 71.0445 28.3002C71.1718 28.0859 71.2354 27.8548 71.2354 27.607C71.2354 27.1515 71.0713 26.7865 70.7431 26.5118C70.4149 26.2372 70.0431 26.0563 69.6278 25.9693L70.0297 24H70.8536L71.0043 25.4167C71.7612 25.6779 72.3305 26.0363 72.7123 26.4917C73.1008 26.9472 73.2951 27.4429 73.2951 27.9787C73.2951 28.4007 73.1812 28.7959 72.9535 29.1643C72.7324 29.5327 72.4076 29.8308 71.9789 30.0585C71.5502 30.293 71.0277 30.4102 70.4115 30.4102ZM75.5959 24L78.1178 6.31674H81.6745L84.3572 24H81.8453L81.4234 20.8451H78.5699L78.1881 24H75.5959ZM78.8312 18.685H81.142L79.9565 9.80316H79.9163L78.8312 18.685ZM81.4133 4.91012C81.1186 4.91012 80.8038 4.84314 80.4689 4.70917C80.134 4.56851 79.8024 4.4312 79.4742 4.29723C79.146 4.15657 78.8412 4.08624 78.5599 4.08624C78.4527 4.08624 78.3757 4.09294 78.3288 4.10634C78.2216 4.13313 78.1312 4.19676 78.0575 4.29723C77.9905 4.39101 77.9102 4.52497 77.8164 4.69913L76.5102 4.17667C76.6442 3.72119 76.8049 3.36283 76.9925 3.1016C77.18 2.83368 77.3944 2.64278 77.6355 2.52891C77.8767 2.40834 78.1446 2.34806 78.4393 2.34806C78.7139 2.34806 79.0321 2.41169 79.3938 2.53896C79.7622 2.65952 80.1139 2.78344 80.4488 2.91071C80.7837 3.03127 81.0349 3.09156 81.2023 3.09156H81.2425C81.3363 3.07816 81.4267 3.03127 81.5138 2.9509C81.6009 2.87052 81.698 2.67962 81.8052 2.3782L83.2319 2.65952L83.1414 3.14179C82.9941 3.83171 82.7797 4.30058 82.4984 4.54842C82.2238 4.78955 81.8621 4.91012 81.4133 4.91012ZM89.6822 24.2009C88.7646 24.2009 88.0144 24.0067 87.4316 23.6182C86.8556 23.2297 86.4303 22.6537 86.1556 21.8901C85.881 21.1265 85.7437 20.182 85.7437 19.0567V10.9686C85.7437 9.95052 85.8777 9.07975 86.1456 8.35635C86.4135 7.63294 86.8389 7.07699 87.4216 6.68849C88.0043 6.3 88.7679 6.10575 89.7124 6.10575C90.4224 6.10575 91.0219 6.21627 91.5109 6.43731C91.9998 6.65835 92.395 6.97986 92.6964 7.40185C92.9979 7.81714 93.2155 8.3262 93.3495 8.92904C93.4902 9.52518 93.5605 10.205 93.5605 10.9686V19.0567C93.5605 20.182 93.4265 21.1265 93.1586 21.8901C92.8974 22.6537 92.4821 23.2297 91.9127 23.6182C91.3434 24.0067 90.5999 24.2009 89.6822 24.2009ZM89.6822 21.87C90.0172 21.87 90.2683 21.7695 90.4358 21.5686C90.6032 21.3676 90.7138 21.0628 90.7674 20.6542C90.8276 20.239 90.8578 19.7165 90.8578 19.0869V10.8481C90.8578 10.0778 90.7841 9.48499 90.6367 9.0697C90.4961 8.64772 90.188 8.43672 89.7124 8.43672C89.2234 8.43672 88.8919 8.64102 88.7177 9.04961C88.5435 9.4515 88.4565 10.0476 88.4565 10.838V19.0869C88.4565 19.7299 88.4833 20.2591 88.5369 20.6743C88.5971 21.0829 88.7144 21.3844 88.8885 21.5786C89.0694 21.7728 89.3339 21.87 89.6822 21.87ZM99.7697 24V6.31674H102.462V24H99.7697ZM105.175 24V6.31674H107.285L111.033 16.9267L110.842 12.104V6.31674H113.263V24H111.354L107.506 13.0183L107.657 17.6602V24H105.175ZM116.85 24V8.64772H114.78V6.31674H121.522V8.64772H119.533V24H116.85ZM123.039 24V6.31674H128.967V8.63767H125.732V13.7819H128.806V16.0526H125.732V21.6791H129.088V24H123.039ZM131.077 24V6.31674H133.77V21.7092H137.176V24H131.077ZM138.693 24V6.31674H141.386V24H138.693ZM147.424 24.1809C146.359 24.1809 145.502 23.7622 144.852 22.9249C144.202 22.081 143.877 20.7145 143.877 18.8256V11.1394C143.877 10.3491 143.951 9.6424 144.098 9.01947C144.253 8.39653 144.487 7.87073 144.802 7.44204C145.123 7.00666 145.539 6.67845 146.048 6.4574C146.557 6.22967 147.17 6.1158 147.886 6.1158C148.663 6.1158 149.296 6.23301 149.785 6.46745C150.274 6.69519 150.649 7.0301 150.911 7.47218C151.178 7.90757 151.363 8.44342 151.463 9.07975C151.564 9.71608 151.614 10.4361 151.614 11.2399V12.4958H149.102V10.6471C149.102 9.85004 149.018 9.28405 148.851 8.94914C148.69 8.61423 148.382 8.44677 147.926 8.44677C147.424 8.44677 147.076 8.64437 146.882 9.03956C146.687 9.42806 146.59 10.1213 146.59 11.1194V18.7854C146.59 19.8974 146.671 20.6944 146.831 21.1767C146.999 21.6523 147.344 21.8901 147.866 21.8901C148.375 21.8901 148.734 21.6456 148.941 21.1566C149.156 20.6609 149.263 19.8371 149.263 18.685V16.3038H147.906V14.3445H151.614V24H150.408L149.996 22.2618C149.849 22.8714 149.534 23.3436 149.052 23.6785C148.576 24.0134 148.034 24.1809 147.424 24.1809ZM154.146 24V6.31674H160.074V8.63767H156.838V13.7819H159.913V16.0526H156.838V21.6791H160.194V24H154.146ZM162.184 24V6.31674H164.294L168.041 16.9267L167.85 12.104V6.31674H170.272V24H168.363L164.515 13.0183L164.665 17.6602V24H162.184ZM173.859 24V8.64772H171.789V6.31674H178.531V8.64772H176.541V24H173.859ZM180.048 24V6.31674H185.976V8.63767H182.74V13.7819H185.815V16.0526H182.74V21.6791H186.096V24H180.048ZM188.256 24V21.5284H190.517V24H188.256ZM197.128 24V6.31674H201.579C202.503 6.31674 203.193 6.49759 203.649 6.8593C204.104 7.221 204.402 7.75016 204.543 8.44677C204.69 9.14338 204.764 9.99406 204.764 10.9988C204.764 12.037 204.657 12.8542 204.443 13.4503C204.235 14.0398 203.806 14.435 203.157 14.6359C203.465 14.6895 203.723 14.8168 203.93 15.0177C204.138 15.212 204.305 15.5 204.433 15.8818C204.56 16.2569 204.65 16.7425 204.704 17.3386C204.764 17.9281 204.794 18.6515 204.794 19.5089C204.794 19.5758 204.794 19.7634 204.794 20.0715C204.794 20.3796 204.794 20.7447 204.794 21.1667C204.801 21.5819 204.808 21.9972 204.814 22.4125C204.821 22.8278 204.831 23.1828 204.844 23.4775C204.858 23.7723 204.875 23.9464 204.895 24H202.202C202.182 23.9665 202.165 23.7957 202.152 23.4876C202.145 23.1728 202.135 22.7742 202.122 22.292C202.115 21.8097 202.108 21.2906 202.102 20.7346C202.102 20.1787 202.102 19.6328 202.102 19.0969C202.102 18.5544 202.102 18.0754 202.102 17.6602C202.102 17.131 202.061 16.7324 201.981 16.4645C201.907 16.1899 201.767 15.999 201.559 15.8918C201.358 15.7847 201.067 15.721 200.685 15.7009L199.821 15.6507V24H197.128ZM199.831 13.5608H200.906C201.234 13.5608 201.482 13.4872 201.649 13.3398C201.824 13.1924 201.941 12.9212 202.001 12.526C202.068 12.1308 202.102 11.5614 202.102 10.8179V10.7074C202.102 10.0845 202.071 9.60556 202.011 9.27065C201.951 8.93574 201.824 8.70465 201.629 8.57739C201.442 8.45012 201.147 8.38649 200.745 8.38649H199.831V13.5608ZM207.095 24V6.31674H213.023V8.63767H209.788V13.7819H212.862V16.0526H209.788V21.6791H213.144V24H207.095ZM218.358 24.2009C217.621 24.2009 217.005 24.0871 216.509 23.8593C216.02 23.6249 215.632 23.2866 215.344 22.8446C215.063 22.3958 214.862 21.8532 214.741 21.2169C214.62 20.5739 214.56 19.8438 214.56 19.0266V17.4492H217.112V19.2275C217.112 20.1787 217.193 20.8619 217.353 21.2772C217.514 21.6925 217.832 21.9001 218.308 21.9001C218.629 21.9001 218.87 21.8264 219.031 21.6791C219.199 21.525 219.309 21.2839 219.363 20.9557C219.423 20.6208 219.453 20.1854 219.453 19.6495C219.453 18.9864 219.313 18.3802 219.031 17.831C218.757 17.2817 218.338 16.7124 217.775 16.1229L216.469 14.7766C216.107 14.4015 215.779 14.0029 215.485 13.5809C215.197 13.159 214.965 12.6901 214.791 12.1743C214.624 11.6519 214.54 11.0691 214.54 10.4261C214.54 9.49504 214.654 8.708 214.882 8.06497C215.109 7.42195 215.495 6.93633 216.037 6.60811C216.58 6.2732 217.323 6.10575 218.268 6.10575C218.978 6.10575 219.56 6.21627 220.016 6.43731C220.478 6.65165 220.836 6.96982 221.091 7.3918C221.352 7.80709 221.536 8.31616 221.644 8.91899C221.751 9.51513 221.804 10.1984 221.804 10.9686V12.0638H219.323V10.7978C219.323 10.262 219.292 9.81655 219.232 9.46155C219.179 9.10654 219.075 8.84197 218.921 8.66781C218.767 8.48696 218.542 8.39653 218.248 8.39653C217.966 8.39653 217.739 8.46017 217.564 8.58743C217.39 8.708 217.263 8.8989 217.183 9.16013C217.109 9.41466 217.072 9.74622 217.072 10.1548C217.072 10.5232 217.119 10.8414 217.213 11.1093C217.306 11.3772 217.45 11.6351 217.645 11.8829C217.839 12.1308 218.08 12.4088 218.368 12.7169L219.825 14.2943C220.522 15.0445 221.064 15.8248 221.453 16.6353C221.841 17.4458 222.035 18.3501 222.035 19.3481C222.035 20.4064 221.922 21.2973 221.694 22.0207C221.466 22.7374 221.084 23.2799 220.548 23.6483C220.013 24.0167 219.282 24.2009 218.358 24.2009ZM227.712 24.2009C226.794 24.2009 226.048 24.0301 225.472 23.6885C224.896 23.3402 224.474 22.8178 224.206 22.1212C223.938 21.4178 223.804 20.5303 223.804 19.4586V6.31674H226.496V19.4084C226.496 19.904 226.516 20.3394 226.557 20.7145C226.604 21.0896 226.711 21.381 226.878 21.5886C227.046 21.7963 227.32 21.9001 227.702 21.9001C228.084 21.9001 228.359 21.7996 228.526 21.5987C228.7 21.391 228.807 21.0997 228.847 20.7246C228.888 20.3495 228.908 19.9107 228.908 19.4084V6.31674H231.6V19.4586C231.6 20.5303 231.466 21.4178 231.199 22.1212C230.937 22.8178 230.519 23.3402 229.943 23.6885C229.373 24.0301 228.63 24.2009 227.712 24.2009ZM234.122 24V6.31674H236.815V21.7092H240.221V24H234.122ZM242.301 24V8.64772H240.231V6.31674H246.973V8.64772H244.983V24H242.301ZM246.943 24L249.465 6.31674H253.021L255.704 24H253.192L252.77 20.8451H249.917L249.535 24H246.943ZM250.178 18.685H252.489L251.303 9.80316H251.263L250.178 18.685ZM257.311 24V6.31674H261.28C262.178 6.31674 262.898 6.49759 263.44 6.8593C263.983 7.2143 264.375 7.73006 264.616 8.40658C264.864 9.0831 264.988 9.90028 264.988 10.8581L264.998 18.8357C264.998 19.9945 264.87 20.959 264.616 21.7293C264.368 22.4929 263.966 23.0623 263.41 23.4374C262.854 23.8125 262.114 24 261.19 24H257.311ZM260.004 21.9102H260.888C261.203 21.9102 261.464 21.8465 261.672 21.7193C261.886 21.592 262.044 21.3676 262.144 21.0461C262.251 20.7179 262.305 20.2557 262.305 19.6596L262.295 10.9285C262.295 10.0242 262.184 9.37447 261.963 8.97928C261.742 8.58408 261.354 8.38649 260.798 8.38649H260.004V21.9102ZM271.157 24.2009C270.239 24.2009 269.489 24.0067 268.906 23.6182C268.33 23.2297 267.905 22.6537 267.63 21.8901C267.355 21.1265 267.218 20.182 267.218 19.0567V10.9686C267.218 9.95052 267.352 9.07975 267.62 8.35635C267.888 7.63294 268.313 7.07699 268.896 6.68849C269.479 6.3 270.242 6.10575 271.187 6.10575C271.897 6.10575 272.496 6.21627 272.985 6.43731C273.474 6.65835 273.869 6.97986 274.171 7.40185C274.472 7.81714 274.69 8.3262 274.824 8.92904C274.965 9.52518 275.035 10.205 275.035 10.9686V19.0567C275.035 20.182 274.901 21.1265 274.633 21.8901C274.372 22.6537 273.957 23.2297 273.387 23.6182C272.818 24.0067 272.074 24.2009 271.157 24.2009ZM271.157 21.87C271.492 21.87 271.743 21.7695 271.91 21.5686C272.078 21.3676 272.188 21.0628 272.242 20.6542C272.302 20.239 272.332 19.7165 272.332 19.0869V10.8481C272.332 10.0778 272.259 9.48499 272.111 9.0697C271.97 8.64772 271.662 8.43672 271.187 8.43672C270.698 8.43672 270.366 8.64102 270.192 9.04961C270.018 9.4515 269.931 10.0476 269.931 10.838V19.0869C269.931 19.7299 269.958 20.2591 270.011 20.6743C270.072 21.0829 270.189 21.3844 270.363 21.5786C270.544 21.7728 270.808 21.87 271.157 21.87ZM280.712 24.2009C279.975 24.2009 279.359 24.0871 278.863 23.8593C278.374 23.6249 277.986 23.2866 277.697 22.8446C277.416 22.3958 277.215 21.8532 277.095 21.2169C276.974 20.5739 276.914 19.8438 276.914 19.0266V17.4492H279.466V19.2275C279.466 20.1787 279.546 20.8619 279.707 21.2772C279.868 21.6925 280.186 21.9001 280.661 21.9001C280.983 21.9001 281.224 21.8264 281.385 21.6791C281.552 21.525 281.663 21.2839 281.716 20.9557C281.777 20.6208 281.807 20.1854 281.807 19.6495C281.807 18.9864 281.666 18.3802 281.385 17.831C281.11 17.2817 280.692 16.7124 280.129 16.1229L278.823 14.7766C278.461 14.4015 278.133 14.0029 277.838 13.5809C277.55 13.159 277.319 12.6901 277.145 12.1743C276.977 11.6519 276.894 11.0691 276.894 10.4261C276.894 9.49504 277.008 8.708 277.235 8.06497C277.463 7.42195 277.848 6.93633 278.391 6.60811C278.933 6.2732 279.677 6.10575 280.621 6.10575C281.331 6.10575 281.914 6.21627 282.369 6.43731C282.832 6.65165 283.19 6.96982 283.445 7.3918C283.706 7.80709 283.89 8.31616 283.997 8.91899C284.104 9.51513 284.158 10.1984 284.158 10.9686V12.0638H281.676V10.7978C281.676 10.262 281.646 9.81655 281.586 9.46155C281.532 9.10654 281.428 8.84197 281.274 8.66781C281.12 8.48696 280.896 8.39653 280.601 8.39653C280.32 8.39653 280.092 8.46017 279.918 8.58743C279.744 8.708 279.617 8.8989 279.536 9.16013C279.462 9.41466 279.426 9.74622 279.426 10.1548C279.426 10.5232 279.473 10.8414 279.566 11.1093C279.66 11.3772 279.804 11.6351 279.998 11.8829C280.193 12.1308 280.434 12.4088 280.722 12.7169L282.179 14.2943C282.875 15.0445 283.418 15.8248 283.806 16.6353C284.195 17.4458 284.389 18.3501 284.389 19.3481C284.389 20.4064 284.275 21.2973 284.047 22.0207C283.82 22.7374 283.438 23.2799 282.902 23.6483C282.366 24.0167 281.636 24.2009 280.712 24.2009ZM289.985 24V6.31674H294.436C295.361 6.31674 296.051 6.49759 296.506 6.8593C296.962 7.221 297.26 7.75016 297.4 8.44677C297.548 9.14338 297.621 9.99406 297.621 10.9988C297.621 12.037 297.514 12.8542 297.3 13.4503C297.092 14.0398 296.663 14.435 296.014 14.6359C296.322 14.6895 296.58 14.8168 296.787 15.0177C296.995 15.212 297.162 15.5 297.29 15.8818C297.417 16.2569 297.507 16.7425 297.561 17.3386C297.621 17.9281 297.651 18.6515 297.651 19.5089C297.651 19.5758 297.651 19.7634 297.651 20.0715C297.651 20.3796 297.651 20.7447 297.651 21.1667C297.658 21.5819 297.665 21.9972 297.672 22.4125C297.678 22.8278 297.688 23.1828 297.702 23.4775C297.715 23.7723 297.732 23.9464 297.752 24H295.059C295.039 23.9665 295.022 23.7957 295.009 23.4876C295.002 23.1728 294.992 22.7742 294.979 22.292C294.972 21.8097 294.965 21.2906 294.959 20.7346C294.959 20.1787 294.959 19.6328 294.959 19.0969C294.959 18.5544 294.959 18.0754 294.959 17.6602C294.959 17.131 294.919 16.7324 294.838 16.4645C294.765 16.1899 294.624 15.999 294.416 15.8918C294.215 15.7847 293.924 15.721 293.542 15.7009L292.678 15.6507V24H289.985ZM292.688 13.5608H293.763C294.091 13.5608 294.339 13.4872 294.507 13.3398C294.681 13.1924 294.798 12.9212 294.858 12.526C294.925 12.1308 294.959 11.5614 294.959 10.8179V10.7074C294.959 10.0845 294.929 9.60556 294.868 9.27065C294.808 8.93574 294.681 8.70465 294.487 8.57739C294.299 8.45012 294.004 8.38649 293.602 8.38649H292.688V13.5608ZM299.952 24V6.31674H305.88V8.63767H302.645V13.7819H305.719V16.0526H302.645V21.6791H306.001V24H299.952ZM306.945 24L309.467 6.31674H313.024L315.706 24H313.195L312.773 20.8451H309.919L309.537 24H306.945ZM310.18 18.685H312.491L311.306 9.80316H311.266L310.18 18.685ZM317.374 24V6.31674H320.067V24H317.374ZM326.005 24.2009C325.268 24.2009 324.652 24.0871 324.156 23.8593C323.667 23.6249 323.279 23.2866 322.991 22.8446C322.709 22.3958 322.508 21.8532 322.388 21.2169C322.267 20.5739 322.207 19.8438 322.207 19.0266V17.4492H324.759V19.2275C324.759 20.1787 324.839 20.8619 325 21.2772C325.161 21.6925 325.479 21.9001 325.955 21.9001C326.276 21.9001 326.517 21.8264 326.678 21.6791C326.846 21.525 326.956 21.2839 327.01 20.9557C327.07 20.6208 327.1 20.1854 327.1 19.6495C327.1 18.9864 326.959 18.3802 326.678 17.831C326.403 17.2817 325.985 16.7124 325.422 16.1229L324.116 14.7766C323.754 14.4015 323.426 14.0029 323.131 13.5809C322.843 13.159 322.612 12.6901 322.438 12.1743C322.271 11.6519 322.187 11.0691 322.187 10.4261C322.187 9.49504 322.301 8.708 322.529 8.06497C322.756 7.42195 323.141 6.93633 323.684 6.60811C324.227 6.2732 324.97 6.10575 325.914 6.10575C326.625 6.10575 327.207 6.21627 327.663 6.43731C328.125 6.65165 328.483 6.96982 328.738 7.3918C328.999 7.80709 329.183 8.31616 329.29 8.91899C329.398 9.51513 329.451 10.1984 329.451 10.9686V12.0638H326.969V10.7978C326.969 10.262 326.939 9.81655 326.879 9.46155C326.825 9.10654 326.722 8.84197 326.568 8.66781C326.414 8.48696 326.189 8.39653 325.894 8.39653C325.613 8.39653 325.385 8.46017 325.211 8.58743C325.037 8.708 324.91 8.8989 324.829 9.16013C324.756 9.41466 324.719 9.74622 324.719 10.1548C324.719 10.5232 324.766 10.8414 324.86 11.1093C324.953 11.3772 325.097 11.6351 325.292 11.8829C325.486 12.1308 325.727 12.4088 326.015 12.7169L327.472 14.2943C328.168 15.0445 328.711 15.8248 329.099 16.6353C329.488 17.4458 329.682 18.3501 329.682 19.3481C329.682 20.4064 329.568 21.2973 329.341 22.0207C329.113 22.7374 328.731 23.2799 328.195 23.6483C327.659 24.0167 326.929 24.2009 326.005 24.2009ZM331.752 24V21.5284H334.013V24H331.752Z" fill="white"/>
</svg>
